<svg xmlns="http://www.w3.org/2000/svg" xmlns:xlink="http://www.w3.org/1999/xlink" version="1.1" id="Слой_1" x="0px" y="0px" viewBox="0 0 43 90" style="enable-background:new 0 0 43 90;" xml:space="preserve">
<style type="text/css">
	.st0{opacity:0.5;}
	.st1{fill:#FFFFFF;}
	.st2{opacity:0.8;enable-background:new    ;}
	.st3{font-family:'Fenix';}
	.st4{font-size:19.1128px;}
</style>
<g class="st0">
	<path d="M7.9,89c-0.6,0-1.2-0.3-1.8-0.8c-1.3-1.4-1.7-4-0.9-6l12.9-30.8H4.3c-1,0-2-0.8-2.6-2.1c-0.6-1.4-0.6-3.2,0-4.6L17.2,7.5   c0.5-1.3,1.5-2.2,2.6-2.2h19.4c1.1,0,2.1,0.9,2.6,2.2c0.6,1.5,0.5,3.3-0.2,4.7l-12,24.6h9.8c1.2,0,2.3,1.1,2.8,2.7   c0.5,1.7,0.2,3.8-0.7,5.1L10,87.8C9.4,88.6,8.7,89,7.9,89z"/>
</g>
<g class="st0">
	<path d="M6.9,84.7c-0.6,0-1.2-0.3-1.8-0.8c-1.3-1.4-1.7-4-0.9-6L17.2,47H3.3c-1,0-2-0.8-2.6-2.1c-0.6-1.4-0.6-3.2,0-4.6L16.2,3.2   C16.7,1.8,17.7,1,18.7,1h19.4c1.1,0,2.1,0.9,2.6,2.2c0.6,1.5,0.5,3.3-0.2,4.7l-12,24.6h9.8c1.2,0,2.3,1.1,2.8,2.7   c0.5,1.7,0.2,3.8-0.7,5.1L9,83.4C8.4,84.2,7.7,84.7,6.9,84.7z"/>
</g>
<g>
	<path class="st1" d="M6.6,48.9c-1.5,0-2.8-1.9-2.8-4.2v-8c0-2.3,1.2-4.2,2.8-4.2h30.8c1.5,0,2.8,1.9,2.8,4.2v8   c0,2.3-1.2,4.2-2.8,4.2H6.6z"/>
	<path d="M37.4,32.6c1.5,0,2.7,1.8,2.7,4.1v8c0,2.2-1.2,4.1-2.7,4.1H6.6c-1.5,0-2.7-1.8-2.7-4.1v-8c0-2.2,1.2-4.1,2.7-4.1H37.4    M37.4,32.3H6.6c-1.6,0-2.9,2-2.9,4.4v8c0,2.4,1.3,4.4,2.9,4.4h30.8c1.6,0,2.9-2,2.9-4.4v-8C40.3,34.2,39,32.3,37.4,32.3L37.4,32.3   z"/>
</g>
<text transform="matrix(1 0 0 1 6.062 47.1246)" class="st2 st3 st4">B/A</text>
</svg>